<svg width="348" height="97" viewBox="0 0 348 97" fill="none" xmlns="http://www.w3.org/2000/svg">
<g filter="url(#filter0_b_601_13)">
<path d="M44.935 0.75C49.435 0.916667 53.9767 1.75 58.56 3.25C63.2267 4.66667 67.5183 7 71.435 10.25C75.3517 13.4167 78.685 17.5417 81.435 22.625C84.185 27.625 85.8933 33.75 86.56 41C87.1433 46.9167 86.3933 52.7917 84.31 58.625C82.31 64.375 79.5183 69.6667 75.935 74.5C72.3517 79.3333 68.2267 83.4583 63.56 86.875C58.8933 90.2083 54.2267 92.4167 49.56 93.5C46.7267 94.1667 43.6017 94.25 40.185 93.75C36.8517 93.1667 33.435 92.125 29.935 90.625C26.5183 89.0417 23.1433 87.0417 19.81 84.625C16.56 82.2083 13.6017 79.4583 10.935 76.375C8.26833 73.2083 6.01833 69.7917 4.185 66.125C2.435 62.4583 1.35166 58.625 0.934998 54.625C0.518331 51.2917 0.476664 47.625 0.809998 43.625C1.22666 39.5417 2.01833 35.5 3.185 31.5C4.435 27.4167 6.14333 23.5 8.31 19.75C10.56 15.9167 13.3933 12.5833 16.81 9.75C20.2267 6.83333 24.2267 4.58333 28.81 3C33.4767 1.33333 38.8517 0.583333 44.935 0.75ZM22.56 51.375C21.3933 60.2917 22.2267 67.4583 25.06 72.875C27.9767 78.2917 32.3517 81.5833 38.185 82.75C41.0183 83.3333 43.7267 82.75 46.31 81C48.9767 79.1667 51.3933 76.5417 53.56 73.125C55.7267 69.7083 57.6017 65.7083 59.185 61.125C60.7683 56.5417 61.935 51.75 62.685 46.75C63.435 41.75 63.4767 37.25 62.81 33.25C62.2267 29.1667 61.185 25.7083 59.685 22.875C58.185 19.9583 56.3517 17.7083 54.185 16.125C52.1017 14.5417 49.935 13.6667 47.685 13.5C43.7683 13.25 40.3517 14.2917 37.435 16.625C34.5183 18.875 32.06 21.8333 30.06 25.5C28.06 29.1667 26.435 33.2917 25.185 37.875C24.0183 42.4583 23.1433 46.9583 22.56 51.375ZM87.405 5.375C90.0717 5.45833 92.405 5.5 94.405 5.5C96.405 5.41667 98.03 5.375 99.28 5.375H102.905C103.822 5.29167 104.947 5.25 106.28 5.25C107.447 5.25 108.863 5.25 110.53 5.25C112.197 5.25 114.113 5.29167 116.28 5.375C116.947 7.70833 117.697 10 118.53 12.25C119.447 14.4167 120.238 16.375 120.905 18.125C121.738 20.2083 122.572 22.1667 123.405 24C124.238 25.8333 125.238 28.0417 126.405 30.625C127.405 32.7917 128.613 35.4583 130.03 38.625C131.447 41.7083 133.113 45.25 135.03 49.25C135.947 46.6667 136.78 44.2917 137.53 42.125C138.363 39.9583 139.072 38.0833 139.655 36.5C140.322 34.6667 140.863 33 141.28 31.5C141.697 30 142.155 28.1667 142.655 26C143.072 24.1667 143.53 21.9583 144.03 19.375C144.613 16.7917 145.197 13.7917 145.78 10.375C148.197 10.375 150.363 10.375 152.28 10.375C154.197 10.375 155.863 10.3333 157.28 10.25C158.863 10.25 160.28 10.2083 161.53 10.125C162.863 10.125 164.655 10.0417 166.905 9.875C168.822 9.70833 171.363 9.58333 174.53 9.5C177.78 9.33333 181.78 9.125 186.53 8.875C184.78 10.125 183.363 11.375 182.28 12.625C181.28 13.7917 180.488 14.8333 179.905 15.75C179.238 16.8333 178.822 17.875 178.655 18.875C178.488 19.7083 178.322 21.625 178.155 24.625C178.072 27.625 177.947 31.2083 177.78 35.375C177.697 39.4583 177.613 43.8333 177.53 48.5C177.53 53.1667 177.572 57.5833 177.655 61.75C177.738 65.9167 177.863 69.5417 178.03 72.625C178.28 75.625 178.613 77.5417 179.03 78.375C179.613 79.375 180.405 80.5417 181.405 81.875C182.322 83.0417 183.488 84.375 184.905 85.875C186.405 87.375 188.363 89.0417 190.78 90.875C186.947 91.0417 183.738 91.1667 181.155 91.25C178.655 91.3333 176.572 91.4167 174.905 91.5C172.988 91.5833 171.447 91.625 170.28 91.625C169.03 91.625 167.322 91.6667 165.155 91.75C163.238 91.8333 160.697 91.9583 157.53 92.125C154.363 92.2083 150.28 92.375 145.28 92.625C146.447 91.2917 147.53 89.9583 148.53 88.625C149.53 87.2917 150.363 86.0833 151.03 85C151.863 83.75 152.572 82.5417 153.155 81.375C153.738 79.7917 154.197 76.9167 154.53 72.75C154.863 69.1667 155.113 64.0417 155.28 57.375C155.447 50.625 155.447 41.5833 155.28 30.25C153.697 32.8333 152.28 35.4167 151.03 38C149.863 40.5 148.822 42.7917 147.905 44.875C146.905 47.2917 145.988 49.625 145.155 51.875C144.322 54.2083 143.447 56.7917 142.53 59.625C141.697 62.0417 140.697 64.9167 139.53 68.25C138.447 71.5833 137.197 75.25 135.78 79.25L131.03 79.5C130.363 76.1667 129.697 73.1667 129.03 70.5C128.363 67.75 127.697 65.4167 127.03 63.5C126.28 61.25 125.53 59.25 124.78 57.5C123.947 55.75 123.03 53.7917 122.03 51.625C121.113 49.7917 119.988 47.625 118.655 45.125C117.405 42.625 115.947 39.8333 114.28 36.75C113.447 45.25 112.947 52.1667 112.78 57.5C112.613 62.75 112.613 66.8333 112.78 69.75C112.947 73.25 113.197 75.7917 113.53 77.375C114.03 78.7917 114.822 80.375 115.905 82.125C116.822 83.625 118.072 85.4167 119.655 87.5C121.322 89.5 123.447 91.75 126.03 94.25C124.197 94.25 122.28 94.25 120.28 94.25C118.28 94.25 116.447 94.2917 114.78 94.375C112.78 94.4583 110.822 94.5 108.905 94.5C106.905 94.5833 104.572 94.7083 101.905 94.875C99.5717 95.0417 96.78 95.2083 93.53 95.375C90.28 95.5417 86.53 95.8333 82.28 96.25C84.1133 95.0833 85.6133 93.9583 86.78 92.875C87.9467 91.7083 88.8633 90.6667 89.53 89.75C90.3633 88.6667 90.9883 87.5833 91.405 86.5C91.655 85.8333 91.8633 84.375 92.03 82.125C92.28 79.875 92.4883 77.125 92.655 73.875C92.905 70.625 93.0717 67 93.155 63C93.3217 59 93.4467 54.9583 93.53 50.875C93.6967 46.7083 93.8217 42.6667 93.905 38.75C93.9883 34.75 94.03 31.1667 94.03 28C94.1133 24.75 94.155 22.0417 94.155 19.875C94.155 17.7083 94.155 16.3333 94.155 15.75C93.905 14.5 93.53 13.25 93.03 12C92.6133 10.9167 91.9467 9.79167 91.03 8.625C90.1133 7.45833 88.905 6.375 87.405 5.375ZM188.875 8.875C191.708 9.20833 194.083 9.45833 196 9.625C198 9.70833 199.625 9.83333 200.875 10C202.375 10.1667 203.542 10.25 204.375 10.25C205.292 10.3333 206.667 10.2917 208.5 10.125C210.083 9.95833 212.208 9.75 214.875 9.5C217.625 9.25 221.125 8.875 225.375 8.375C223.458 10.0417 221.917 11.6667 220.75 13.25C219.667 14.75 218.833 16.0833 218.25 17.25C217.5 18.6667 217.042 20 216.875 21.25C216.542 23.25 216.25 26 216 29.5C215.833 32.9167 215.667 36.6667 215.5 40.75C215.333 44.8333 215.25 49.0417 215.25 53.375C215.25 57.7083 215.292 61.8333 215.375 65.75C215.542 69.5833 215.792 73 216.125 76C216.542 79 217.042 81.1667 217.625 82.5C218.458 84 219.333 85.5 220.25 87C221.083 88.25 222.083 89.5417 223.25 90.875C224.417 92.2083 225.75 93.2917 227.25 94.125C222.333 93.875 218.417 93.75 215.5 93.75H211C209.667 93.75 207.958 93.8333 205.875 94C204.125 94.1667 201.917 94.3333 199.25 94.5C196.583 94.6667 193.375 94.9167 189.625 95.25C191.542 93.1667 193.042 91.1667 194.125 89.25C195.208 87.3333 196.083 85.6667 196.75 84.25C197.5 82.5833 198 81 198.25 79.5C198.583 77.3333 198.833 74.6667 199 71.5C199.25 68.25 199.417 64.7917 199.5 61.125C199.583 57.375 199.583 53.5833 199.5 49.75C199.5 45.8333 199.417 42.0833 199.25 38.5C199.083 34.9167 198.833 31.6667 198.5 28.75C198.25 25.8333 197.917 23.5 197.5 21.75C197.25 20.6667 196.75 19.4583 196 18.125C195.333 16.9583 194.417 15.625 193.25 14.125C192.167 12.5417 190.708 10.7917 188.875 8.875ZM225.97 6.375C229.72 7.04167 232.803 7.5 235.22 7.75C237.637 8 239.595 8.20833 241.095 8.375C242.845 8.54167 244.22 8.58333 245.22 8.5H248.97C250.303 8.5 251.97 8.5 253.97 8.5C256.053 8.41667 258.637 8.375 261.72 8.375C263.47 12.4583 265.053 16.2083 266.47 19.625C267.97 23.0417 269.22 25.9583 270.22 28.375C271.387 31.2917 272.47 33.9167 273.47 36.25C274.637 39.1667 275.887 42.375 277.22 45.875C278.553 49.375 279.762 52.6667 280.845 55.75C282.012 58.8333 282.97 61.375 283.72 63.375C284.47 65.375 284.845 66.2917 284.845 66.125C284.845 66.0417 284.887 65.2083 284.97 63.625C285.053 61.9583 285.137 59.9167 285.22 57.5C285.303 55 285.387 52.2917 285.47 49.375C285.637 46.375 285.72 43.5 285.72 40.75C285.803 37.9167 285.845 35.3333 285.845 33C285.845 30.6667 285.762 28.9167 285.595 27.75C285.345 26.3333 284.845 24.7083 284.095 22.875C283.428 21.2917 282.512 19.4167 281.345 17.25C280.178 15 278.553 12.4583 276.47 9.625C279.887 9.70833 282.678 9.75 284.845 9.75C287.012 9.75 288.762 9.75 290.095 9.75C291.595 9.75 292.762 9.70833 293.595 9.625C294.678 9.625 296.012 9.54167 297.595 9.375C299.012 9.20833 300.762 9.08333 302.845 9C305.012 8.83333 307.678 8.625 310.845 8.375C309.012 10.0417 307.553 11.625 306.47 13.125C305.387 14.625 304.512 15.9583 303.845 17.125C303.095 18.4583 302.595 19.7083 302.345 20.875C302.012 22.375 301.72 24.8333 301.47 28.25C301.303 31.5833 301.095 35.3333 300.845 39.5C300.678 43.6667 300.512 48 300.345 52.5C300.178 57 300.012 61.125 299.845 64.875C299.845 67.7083 299.762 70.75 299.595 74C299.428 76.75 299.262 79.875 299.095 83.375C298.928 86.7917 298.72 90.25 298.47 93.75L287.345 94C284.095 88.25 281.345 83.3333 279.095 79.25C276.928 75.0833 275.137 71.6667 273.72 69C272.137 65.9167 270.803 63.3333 269.72 61.25C268.803 59.25 267.595 56.9583 266.095 54.375C264.845 52.2083 263.262 49.5417 261.345 46.375C259.512 43.2083 257.303 39.5833 254.72 35.5C254.47 41.25 254.345 46.1667 254.345 50.25C254.428 54.25 254.553 57.5833 254.72 60.25C254.97 63.3333 255.262 65.9167 255.595 68C256.012 70 256.595 72.25 257.345 74.75C258.012 76.9167 258.803 79.4583 259.72 82.375C260.72 85.2917 261.928 88.5833 263.345 92.25C258.428 92 254.762 91.875 252.345 91.875H248.595C247.428 91.875 245.845 92 243.845 92.25C242.178 92.4167 239.887 92.6667 236.97 93C234.137 93.3333 230.595 93.7917 226.345 94.375C228.345 91.9583 229.928 89.75 231.095 87.75C232.345 85.6667 233.303 83.9167 233.97 82.5C234.803 80.8333 235.387 79.375 235.72 78.125C235.97 76.7917 236.137 74.5 236.22 71.25C236.303 67.9167 236.303 64.1667 236.22 60C236.22 55.75 236.137 51.2917 235.97 46.625C235.887 41.9583 235.762 37.625 235.595 33.625C235.428 29.625 235.22 26.2083 234.97 23.375C234.803 20.5417 234.678 18.7917 234.595 18.125C234.345 17.0417 233.845 15.875 233.095 14.625C232.428 13.5417 231.553 12.3333 230.47 11C229.387 9.58333 227.887 8.04167 225.97 6.375ZM308.94 8.875C311.773 9.20833 314.148 9.45833 316.065 9.625C318.065 9.70833 319.69 9.83333 320.94 10C322.44 10.1667 323.607 10.25 324.44 10.25C325.357 10.3333 326.732 10.2917 328.565 10.125C330.148 9.95833 332.273 9.75 334.94 9.5C337.69 9.25 341.19 8.875 345.44 8.375C343.523 10.0417 341.982 11.6667 340.815 13.25C339.732 14.75 338.898 16.0833 338.315 17.25C337.565 18.6667 337.107 20 336.94 21.25C336.607 23.25 336.315 26 336.065 29.5C335.898 32.9167 335.732 36.6667 335.565 40.75C335.398 44.8333 335.315 49.0417 335.315 53.375C335.315 57.7083 335.357 61.8333 335.44 65.75C335.607 69.5833 335.857 73 336.19 76C336.607 79 337.107 81.1667 337.69 82.5C338.523 84 339.398 85.5 340.315 87C341.148 88.25 342.148 89.5417 343.315 90.875C344.482 92.2083 345.815 93.2917 347.315 94.125C342.398 93.875 338.482 93.75 335.565 93.75H331.065C329.732 93.75 328.023 93.8333 325.94 94C324.19 94.1667 321.982 94.3333 319.315 94.5C316.648 94.6667 313.44 94.9167 309.69 95.25C311.607 93.1667 313.107 91.1667 314.19 89.25C315.273 87.3333 316.148 85.6667 316.815 84.25C317.565 82.5833 318.065 81 318.315 79.5C318.648 77.3333 318.898 74.6667 319.065 71.5C319.315 68.25 319.482 64.7917 319.565 61.125C319.648 57.375 319.648 53.5833 319.565 49.75C319.565 45.8333 319.482 42.0833 319.315 38.5C319.148 34.9167 318.898 31.6667 318.565 28.75C318.315 25.8333 317.982 23.5 317.565 21.75C317.315 20.6667 316.815 19.4583 316.065 18.125C315.398 16.9583 314.482 15.625 313.315 14.125C312.232 12.5417 310.773 10.7917 308.94 8.875Z" fill="black"/>
</g>
<defs>
<filter id="filter0_b_601_13" x="-3.69" y="-3.5" width="355.005" height="103.75" filterUnits="userSpaceOnUse" color-interpolation-filters="sRGB">
<feFlood flood-opacity="0" result="BackgroundImageFix"/>
<feGaussianBlur in="BackgroundImageFix" stdDeviation="2"/>
<feComposite in2="SourceAlpha" operator="in" result="effect1_backgroundBlur_601_13"/>
<feBlend mode="normal" in="SourceGraphic" in2="effect1_backgroundBlur_601_13" result="shape"/>
</filter>
</defs>
</svg>
